<svg xmlns="http://www.w3.org/2000/svg" xmlns:xlink="http://www.w3.org/1999/xlink" width="218.65" height="218.65" viewBox="0 0 218.65 218.65">
  <defs>
    <clipPath id="clip-path">
      <circle id="background" cx="109.325" cy="109.325" r="109.325" fill="none"/>
    </clipPath>
  </defs>
  <g id="Group_7" data-name="Group 7" transform="translate(-142.151 -187.104)">
    <circle id="background-2" data-name="background" cx="109.325" cy="109.325" r="109.325" transform="translate(142.151 187.104)" fill="#efefef"/>
    <g id="Group_6" data-name="Group 6" transform="translate(142.151 187.104)">
      <g id="Group_5" data-name="Group 5" clip-path="url(#clip-path)">
        <g id="Group_4" data-name="Group 4" transform="translate(-10.726 20.61)">
          <path id="脖子" d="M266.522,392.4v52.548l19.925,18.761,32.141-20.361s12.857-42.454,10.819-66.918C328.295,363.094,266.522,392.4,266.522,392.4Z" transform="translate(-181.016 -281.819)" fill="#ffd8ae"/>
          <path id="下巴陰影" d="M327.717,370.736l-49.527,12.9s-19.058-.491-14.147,18.371c0,0,10.217,12.084,23.873,6.189,0,0,16.2-8.174,19.528-10.6S329.562,374.929,327.717,370.736Z" transform="translate(-179.705 -280.935)" fill="#e5b789"/>
          <path id="衣服本體" d="M131.112,462.614s-11.394-4.051-4.684-19.749S146.3,391.719,146.3,391.719s3.671-8.862,10.128-8.229,25.446,2.785,32.156.759,12.407-3.278,18.357-2.272c1.512,42.862,7.778,47.27,21.582,84.007,26.212-44.958,41.494-22.042,52.726-71.368,4.469,1.535,18.48,4.758,29.5,10.142,5.444,2.658,20.382,2.026,25.826,10.381s12.786,39.752,8.989,70.643c-3.671-5.191-10.508-15.319-32.536-13.167-14.685,2.026-15.318,9.115-15.318,9.115l5.143,77.712L159.811,532.4Z" transform="translate(-124.312 -285.276)" fill="#fff"/>
          <path id="衣領左下" d="M274.68,468.021s.517,16.629,2.412,21.8,4.567,15.853,4.567,15.853l8.157-18.6-10.828-20.254Z" transform="translate(-184.269 -319.245)" fill="#f2f2f2"/>
          <path id="衣領右下" d="M300.417,516.21l-14.13-4.653s6.979-16.715,10.6-21.367,17.835-8.616,17.835-8.616S301.278,512.677,300.417,516.21Z" transform="translate(-188.897 -325.13)" fill="#f2f2f2"/>
          <path id="衣領陰影" d="M251.846,393.855s-10.25,15.069-8.672,26l1.868.676-2.033,3.268s29.126,17.379,32.846,29.764c-4.958,12.047-4.958,15.428-4.958,15.428s8.136-18.031,16.577-21.412,29.4-9.917,29.4-9.917V432.59l18.708,3.268s4.733-7.438,4.959-15.44a43.254,43.254,0,0,0-19.109-37.633c-.556.252-.933.481-.889.853-.768,69.925-13.222,33.863-43.36,71.079-4.715-13.824-22.894-33.932-20.041-58.576C257.593,392.288,251.846,393.855,251.846,393.855Z" transform="translate(-171.641 -285.739)" fill="#cecece"/>
          <path id="衣領左" d="M270.267,445.2a63.664,63.664,0,0,1,8.269,12.759c-6.069-14.9-10.9-20.552-14.759-29.38s-3.765-24.966-3.765-24.966.317-16.414-5.614-6.759c0,0-8.276,15.311-8,25.794.849.872,1.711,1.714,2.581,2.539l-1.871,2.548S267.249,442.383,270.267,445.2Z" transform="translate(-172.989 -290.137)" fill="#fff"/>
          <path id="衣領右" d="M339.96,384.368s-1.379,34.207-10.069,42.345-23.31,7.035-32.69,26.621l-4,8.965s6.207-13.242,16.69-16.828,24.965-9.241,24.965-9.241l.138-5.793s16.081,2.474,19.035,2.9c3.856-5.793,5.919-16,3.856-25.931S339.556,375.233,339.96,384.368Z" transform="translate(-191.654 -285.511)" fill="#fff"/>
          <g id="衣服線條" transform="translate(35.832 108.22)">
            <path id="Path_13" data-name="Path 13" d="M220.534,427.909s-5.084,30.171-16.342,49.585" transform="translate(-191.995 -411.951)" fill="none" stroke="#7e5e4c" stroke-linecap="round" stroke-linejoin="round" stroke-width="1"/>
            <path id="Path_14" data-name="Path 14" d="M437.937,455.217s-24.923,21.9-25.855,52.409" transform="translate(-274.888 -422.84)" fill="none" stroke="#7e5e4c" stroke-linecap="round" stroke-linejoin="round" stroke-width="1"/>
            <path id="Path_15" data-name="Path 15" d="M183.906,401.369s13.743,5.823,13.51,49.613" transform="translate(-183.906 -401.369)" fill="none" stroke="#7e5e4c" stroke-linecap="round" stroke-linejoin="round" stroke-width="1"/>
            <path id="Path_16" data-name="Path 16" d="M435.576,450.568s-3.96,3.717-8.385,18.643" transform="translate(-280.912 -420.986)" fill="none" stroke="#7e5e4c" stroke-linecap="round" stroke-linejoin="round" stroke-width="1"/>
          </g>
          <path id="face" d="M325,308.382s9.864-25.568,5.625-33.516-20.344-34.171-56.442-15.584c0,0-8.148,2.519-11.111,17.186-.741,1.482-3.038,3.6-3.556,6.538a9.672,9.672,0,0,1-1.323,3.913,5.425,5.425,0,0,0,0,3.51c.46,1.611-1.151,3.165-1.9,3.97s-2.877,3.913-3.222,9.092-.748,10.991,1.842,25.031a26.43,26.43,0,0,1,1.035,6.9c-.115,2.3-1.9,10.7,4.488,13.523s9.264,3.28,12.314,2.819,28.427-6.675,31.879-9.092,14.27-8.8,15.652-12.026" transform="translate(-175.553 -233.893)" fill="#ffd8ae"/>
          <path id="頭髮陰影" d="M275.048,280.6s1.236-3.157,3.154-4.382l-2.166,5.725s6.779-5.045,10.406-5.876a13.748,13.748,0,0,1,8.915.6c2.343,1.058,11.408,5.364,21.382,2.946a24.28,24.28,0,0,0,14.373-9.537l2.778-3.911L278.68,263S274.761,277.654,275.048,280.6Z" transform="translate(-184.41 -237.977)" fill="#e5b789"/>
          <path id="hair" d="M288.9,227.735a49.3,49.3,0,0,0-5.183,3.008A41.627,41.627,0,0,0,273.9,239.2c-4.856,6.164-4.856,7.284-4.856,7.284l1.588-1.4a17.672,17.672,0,0,0-.467,7.845,16.83,16.83,0,0,0,.841-1.868s-.575,5.1-.008,7.6c.661-1.245,2.53-7.035,6.358-8.435.186,1.494-2.52,8.432-2.522,8.435.1-.245.759-.547.963-.677a19.529,19.529,0,0,1,3.021-1.553c3.656-1.519,8.317-2.853,12.2-1.434,1.737.635,3.4,1.44,5.157,2.037,6.533,2.227,13.488,2.033,20.169.564.864-.19,8.9-2.1,8.831-2.609,1.214,9.152-6.63,10.926-5.416,17.744s8.591,6.289,7,17.106a99.863,99.863,0,0,1-3.642,16.7s5.924-10.854,15.149-14.952,9.761,4.359,9.848,5.356.044,4.407-.494,5.618c3.1-4.089,13.842-22.1,12.89-38.072-.6-9.979-4.1-20.554-12.355-26.783a25.073,25.073,0,0,0-5.539-3.158,26.286,26.286,0,0,0-3.151-1.068,15.126,15.126,0,0,1-2.36-.552c-.887-.4-1.163-1.109-1.694-1.859-.495-.7-1.018-1.379-1.577-2.027a21.164,21.164,0,0,0-4.6-4.019c-5.19-3.321-11.556-3.988-17.576-3.481A62.863,62.863,0,0,0,288.9,227.735Z" transform="translate(-182.022 -221.382)" fill="#2d2932"/>
          <path id="ear" d="M375.795,336.158a15.7,15.7,0,0,0-5.844,2.393,25.151,25.151,0,0,0-5.031,4.2c-16.7,19.116-6.8,19.117-3.616,21.138,1.253.53,1.659,1.544,4.978.251a24.5,24.5,0,0,0,8.286-5.064c1.957-1.957,8.15-9.155,8.113-13.638C382.681,345.434,383.637,334.639,375.795,336.158Z" transform="translate(-216.487 -267.089)" fill="#ffd8ae"/>
          <circle id="左眼" cx="2.708" cy="2.708" r="2.708" transform="translate(83.529 55.07)" fill="#2d2932"/>
          <circle id="右眼" cx="2.708" cy="2.708" r="2.708" transform="translate(107.286 62.868)" fill="#2d2932"/>
          <path id="眉毛右" d="M292.3,310.735s2.967,4.155,4.807,3.621,4.333-3.086,21.01,6.647C315.918,316.017,300.546,304.147,292.3,310.735Z" transform="translate(-191.294 -256.235)" fill="#2d2932"/>
          <path id="眉毛左" d="M270.437,304.153s.89-3.146.534-3.68-4.985-4.808-6.113-4.273-1.483,3.953-1.483,3.953S265.986,300.154,270.437,304.153Z" transform="translate(-179.761 -251.196)" fill="#2d2932"/>
          <path id="鼻子" d="M275.771,315.578s-12.024,18.058-10.487,20.884,3.912,3.083,6.562,2.56,7.628,3.775,9.32,2.159c.728-.7,2.046-3.265,1.243-4.928" transform="translate(-180.468 -258.941)" fill="none" stroke="#7e5e4c" stroke-linecap="round" stroke-linejoin="round" stroke-width="1"/>
          <path id="牙齒" d="M263.667,368.929s7.4,2.441,13.324,4.521l5.922,2.081s-12.348.817-15.669-.3A5.482,5.482,0,0,1,263.667,368.929Z" transform="translate(-179.831 -280.214)" fill="#fff"/>
          <path id="下巴陰影線" d="M264.259,388.139a19.532,19.532,0,0,1,7.218,2.913" transform="translate(-180.114 -287.874)" fill="none" stroke="#7e5e4c" stroke-linecap="round" stroke-linejoin="round" stroke-width="1"/>
          <g id="耳朵線條" transform="translate(147.019 72.473)">
            <path id="Path_17" data-name="Path 17" d="M374.239,349.994s.773-5.763,5.06-7.59,4.849,1.757,3.795,6.255-2.178,8.714-6.184,10.33a24.3,24.3,0,0,1-8.082,1.617" transform="translate(-368.828 -341.917)" fill="none" stroke="#7e5e4c" stroke-linecap="round" stroke-linejoin="round" stroke-width="1"/>
            <path id="Path_18" data-name="Path 18" d="M379.573,350.441s2.06,5.9-.4,7.1-5.622,1.476-6.255,2.741" transform="translate(-370.459 -345.316)" fill="none" stroke="#7e5e4c" stroke-linecap="round" stroke-linejoin="round" stroke-width="1"/>
          </g>
        </g>
      </g>
    </g>
  </g>
</svg>
